<svg xmlns="http://www.w3.org/2000/svg" width="256" height="256" viewBox="0 0 100 100"><rect width="100" height="100" rx="50" fill="#000000"></rect><path d="M37.02 39.12L37.02 39.12Q37.02 35.69 35.09 34.08Q33.16 32.47 29.88 32.47L29.88 32.47Q27.42 32.47 25.50 33.09Q23.57 33.73 22.17 34.50L22.17 34.50L22.17 60.19Q21.68 60.40 20.81 60.57Q19.93 60.75 18.88 60.75L18.88 60.75Q16.85 60.75 15.87 59.98Q14.89 59.21 14.89 57.39L14.89 57.39L14.89 34.28Q14.89 32.67 15.52 31.70Q16.15 30.71 17.62 29.73L17.62 29.73Q19.58 28.54 22.73 27.56Q25.88 26.59 29.88 26.59L29.88 26.59Q36.66 26.59 40.52 29.63Q44.37 32.67 44.37 38.84L44.37 38.84L44.37 60.19Q43.88 60.40 42.97 60.57Q42.05 60.75 41.00 60.75L41.00 60.75Q38.98 60.75 37.99 59.98Q37.02 59.21 37.02 57.39L37.02 57.39L37.02 39.12ZM68.87 61.30L68.87 61.30Q66.63 61.30 64.67 60.85Q62.70 60.40 61.30 59.70L61.30 59.70L61.30 72.86Q60.81 73.06 59.94 73.24Q59.06 73.42 58.02 73.42L58.02 73.42Q55.98 73.42 55.01 72.65Q54.02 71.88 54.02 69.98L54.02 69.98L54.02 33.80Q54.02 32.25 54.59 31.31Q55.15 30.36 56.69 29.45L56.69 29.45Q58.65 28.34 61.48 27.46Q64.31 26.59 67.89 26.59L67.89 26.59Q71.53 26.59 74.68 27.60Q77.83 28.61 80.14 30.71Q82.44 32.81 83.78 36.07Q85.11 39.33 85.11 43.80L85.11 43.80Q85.11 48.22 83.88 51.47Q82.66 54.73 80.52 56.93Q78.39 59.14 75.41 60.22Q72.44 61.30 68.87 61.30ZM67.75 55.36L67.75 55.36Q72.30 55.36 74.95 52.59Q77.62 49.83 77.62 43.80L77.62 43.80Q77.62 40.73 76.84 38.55Q76.08 36.39 74.78 35.02Q73.48 33.66 71.70 33.06Q69.92 32.47 67.89 32.47L67.89 32.47Q65.65 32.47 64.07 32.99Q62.50 33.52 61.30 34.22L61.30 34.22L61.30 53.47Q62.50 54.30 64.11 54.83Q65.72 55.36 67.75 55.36Z" fill="#f8f5f5"></path></svg>